<svg xmlns="http://www.w3.org/2000/svg" viewBox="0 0 139.21 157.3"><title>logo</title><g id="Layer_2" data-name="Layer 2"><g id="Layer_1-2" data-name="Layer 1"><path d="M0,2.7C38.16-4.59,75.4,3.34,112,21L95.74,28.93C68,17.23,41.5,10.41,12.37,14.67V70.41A41.12,41.12,0,0,1,0,73.39V2.7Z" fill="#fefefe"/><path d="M12.37,96.05v45.31c41.86-11.82,70.27-40.23,84.42-84.71q8.73-7.48,17.42-15.26C99.32,106.83,59,142.86,0,157.3V79.46c15.74-.6,118.8-50.28,125.77-61.17l-4.46-1.41c.78-2.24,5.53-2.32,7.48-2.66,2.69-.44,5-5.56,8.5-6.88,1-.37,2.09-.58,1.89.79-.51,3.56-6.29,7.33-6.52,9.33-.29,2.42-.13,6.69-2.31,8l-1.59-4.25C90.37,52.28,52.2,78.45,12.37,96.05Z" fill="#fefefe"/></g></g></svg>