<svg xmlns="http://www.w3.org/2000/svg" viewBox="0 0 272.21 280.34"><title>logo</title><g id="Layer_2" data-name="Layer 2"><g id="Layer_1-2" data-name="Layer 1"><path d="M196.8,107.4c-27.31,9.67-56,15.67-81.32,30.64-38.15,22.57-69.43,51.56-85,94.33-6.84,18.85-3.72,23.28,16.31,23.59,31.05.49,62.19,1.22,93.16-.49,63.25-3.5,108.69-54.76,107.45-119.32-1.15-60-51.11-109.62-112.27-111-29-.65-58.08-.58-87.12-.22-21.64.27-24.89,5.13-18.23,26.1,6.73,21.22,19.73,38.21,36.71,52.33l16.92,14.07c-16.17,4.44-26.56-1.36-36.08-8.52C19.22,87.75,6.35,57.81.51,24.26-1.94,10.17,4.41,1.77,19,1.61c46.57-.53,93.44-4.52,139.61,2.5C225.84,14.32,276.08,80,272,148.57c-4.26,71.16-59.84,126.81-133.25,130.73-39.06,2.09-78.33.34-117.5.49-16.93.06-23-8.7-20.75-24.57,2.22-15.54,6.89-30.49,14.79-43.93,40.65-69.11,100-106,181.52-103.91Z" fill="#d5a450"/><polygon points="191.15 130.11 200.39 106.42 182.62 87.4 223.95 101.44 191.15 130.11" fill="#d5a450"/></g></g></svg>