<?xml version="1.0"?>
<svg xmlns="http://www.w3.org/2000/svg" xmlns:xlink="http://www.w3.org/1999/xlink" xmlns:svgjs="http://svgjs.com/svgjs" version="1.1" width="512" height="512" x="0" y="0" viewBox="0 0 512 512" style="enable-background:new 0 0 512 512" xml:space="preserve" class=""><g><g xmlns="http://www.w3.org/2000/svg"><path d="m76 125.554c-15.715 0-28.5 12.785-28.5 28.5s12.785 28.5 28.5 28.5 28.5-12.785 28.5-28.5-12.785-28.5-28.5-28.5zm0 42c-7.444 0-13.5-6.056-13.5-13.5s6.056-13.5 13.5-13.5 13.5 6.056 13.5 13.5-6.056 13.5-13.5 13.5zm192.493-62.218c6.197 0 11.239 6.093 11.239 13.582 0 4.142 3.358 7.5 7.5 7.5s7.5-3.358 7.5-7.5c0-15.76-11.771-28.582-26.239-28.582h-4.993v-8.46c0-4.142-3.358-7.5-7.5-7.5s-7.5 3.358-7.5 7.5v8.46h-4.993c-14.468 0-26.239 12.822-26.239 28.582v14.054c0 7.47 2.622 14.534 7.383 19.89 4.982 5.605 11.679 8.692 18.856 8.692h4.992v41.218h-4.993c-6.197 0-11.239-6.093-11.239-13.582 0-4.142-3.358-7.5-7.5-7.5s-7.5 3.358-7.5 7.5c0 15.76 11.771 28.582 26.239 28.582h4.993v8.461c0 4.142 3.358 7.5 7.5 7.5s7.5-3.358 7.5-7.5v-8.461h4.993c14.468 0 26.239-12.822 26.239-28.582v-14.055c0-7.47-2.622-14.534-7.383-19.89-4.982-5.605-11.679-8.692-18.856-8.692h-4.992v-41.217zm-19.993 41.218h-4.993c-2.833 0-5.548-1.299-7.645-3.657-2.318-2.607-3.594-6.132-3.594-9.924v-14.054c0-7.489 5.042-13.582 11.239-13.582h4.993zm19.993 14.999c2.833 0 5.548 1.299 7.645 3.657 2.318 2.607 3.594 6.132 3.594 9.924v14.055c0 7.489-5.042 13.582-11.239 13.582h-4.993v-41.218zm167.507 21.001c15.715 0 28.5-12.785 28.5-28.5s-12.785-28.5-28.5-28.5-28.5 12.785-28.5 28.5 12.785 28.5 28.5 28.5zm0-42c7.444 0 13.5 6.056 13.5 13.5s-6.056 13.5-13.5 13.5-13.5-6.056-13.5-13.5 6.056-13.5 13.5-13.5zm38.5-140.554h-236.344c-4.142 0-7.5 3.358-7.5 7.5s3.358 7.5 7.5 7.5h173.334c3.635 45.484 40.026 81.875 85.51 85.51v107.086c-45.484 3.635-81.876 40.027-85.51 85.511h-310.98c-3.635-45.484-40.026-81.876-85.51-85.511v-107.086c45.484-3.635 81.876-40.026 85.51-85.51h102.645c4.142 0 7.5-3.358 7.5-7.5s-3.358-7.5-7.5-7.5h-165.655c-20.678 0-37.5 16.822-37.5 37.5v233.108c0 20.678 16.822 37.5 37.5 37.5h211v153.69c-4.357-1.877-9.264-4.875-13.646-9.672-5.115-5.6-7.71-11.639-9.027-16.503 10.986-13.997 10.043-34.368-2.848-47.259-9.543-9.544-34.407-13.783-53.584-15.659-3.436-.34-6.809.87-9.248 3.31-2.441 2.44-3.648 5.811-3.312 9.249 1.876 19.178 6.115 44.042 15.659 53.585 10.962 10.962 27.38 13.402 40.904 6.829 2.114 5.289 5.367 11.074 10.381 16.564 8.155 8.929 17.608 13.334 24.721 15.503v19.255h-193c-4.142 0-7.5 3.358-7.5 7.5s3.358 7.5 7.5 7.5h401c4.142 0 7.5-3.358 7.5-7.5s-3.358-7.5-7.5-7.5h-193v-49.277c6.864-2.12 15.962-6.35 23.963-14.785 5.409-5.703 8.873-11.757 11.099-17.279 13.508 6.593 29.992 4.142 40.943-6.81 9.544-9.544 13.783-34.408 15.659-53.586.336-3.438-.871-6.809-3.312-9.249-2.44-2.44-5.813-3.646-9.247-3.31-19.178 1.876-44.042 6.115-53.585 15.659-12.882 12.882-13.832 33.235-2.87 47.231-1.3 4.656-3.993 11.14-9.571 17.021-4.244 4.475-8.916 7.319-13.079 9.135v-123.642h211c20.678 0 37.5-16.822 37.5-37.5v-233.108c0-20.678-16.822-37.5-37.5-37.5zm-459.5 37.5c0-12.407 10.093-22.5 22.5-22.5h47.957c-3.553 37.207-33.25 66.904-70.457 70.457zm22.5 255.607c-12.407 0-22.5-10.093-22.5-22.5v-47.957c37.207 3.553 66.904 33.25 70.457 70.457zm174.874 135.135c-8.07 8.07-21.202 8.071-29.272 0-4.4-4.401-8.577-19.937-10.883-40.156 20.22 2.306 35.755 6.482 40.156 10.883 8.069 8.071 8.069 21.203-.001 29.273zm87.252-59.272c4.401-4.401 19.935-8.577 40.156-10.883-2.306 20.22-6.483 35.755-10.883 40.156-8.071 8.071-21.203 8.07-29.272 0-8.071-8.071-8.071-21.203-.001-29.273zm197.374-98.363c0 12.407-10.093 22.5-22.5 22.5h-47.957c3.553-37.207 33.25-66.904 70.457-70.457zm0-185.15c-37.207-3.553-66.904-33.25-70.457-70.457h47.957c12.407 0 22.5 10.093 22.5 22.5zm-166.573 153.954c2.923 2.936 7.672 2.944 10.606.021 22.871-22.779 35.466-53.1 35.466-85.379 0-66.444-54.056-120.5-120.5-120.5s-120.5 54.056-120.5 120.5 54.056 120.5 120.5 120.5c19.059 0 37.292-4.322 54.195-12.847 3.698-1.866 5.185-6.376 3.319-10.074-1.866-3.699-6.377-5.184-10.074-3.319-14.789 7.458-30.75 11.24-47.44 11.24-58.173 0-105.5-47.327-105.5-105.5s47.327-105.5 105.5-105.5 105.5 47.327 105.5 105.5c0 28.261-11.028 54.808-31.051 74.751-2.934 2.924-2.944 7.673-.021 10.607z" fill="#ffffff" data-original="#000000" style="" class=""/></g></g></svg>
