<?xml version="1.0"?>
<svg xmlns="http://www.w3.org/2000/svg" xmlns:xlink="http://www.w3.org/1999/xlink" xmlns:svgjs="http://svgjs.com/svgjs" version="1.1" width="512" height="512" x="0" y="0" viewBox="0 0 512 512" style="enable-background:new 0 0 512 512" xml:space="preserve"><g><g xmlns="http://www.w3.org/2000/svg"><path d="m154.446 496.971h-59.606c-1.382 0-2.505-1.124-2.505-2.505v-476.932c0-1.381 1.123-2.505 2.505-2.505h214.62c4.151 0 7.515-3.365 7.515-7.515s-3.364-7.514-7.515-7.514h-214.62c-9.668 0-17.534 7.866-17.534 17.534v476.932c0 9.668 7.866 17.534 17.534 17.534h59.606c4.151 0 7.515-3.364 7.515-7.515s-3.364-7.514-7.515-7.514z" fill="#ffffff" data-original="#000000" style=""/><path d="m387.101 0h-47.582c-4.151 0-7.515 3.365-7.515 7.515s3.364 7.515 7.515 7.515h47.582c17.956 0 32.564 14.608 32.564 32.564v416.814c0 17.956-14.608 32.564-32.564 32.564h-202.596c-4.151 0-7.515 3.365-7.515 7.515s3.364 7.515 7.515 7.515h202.596c26.243 0 47.593-21.35 47.593-47.593v-416.816c0-26.243-21.351-47.593-47.593-47.593z" fill="#ffffff" data-original="#000000" style=""/><path d="m211.39 265.025c-3.516-2.199-8.155-1.133-10.356 2.385-2.201 3.519-1.133 8.155 2.386 10.357 15.743 9.849 33.925 15.055 52.58 15.055 54.736 0 99.267-44.531 99.267-99.267s-44.531-99.267-99.267-99.267-99.267 44.531-99.267 99.267c0 22.798 7.922 45.066 22.305 62.702 2.624 3.215 7.355 3.698 10.573 1.074 3.216-2.623 3.697-7.357 1.074-10.573-3.821-4.685-7.104-9.755-9.811-15.104h32.726c3.006 16.669 7.972 30.85 14.361 41.344-5.775-2.036-11.334-4.696-16.571-7.973zm72.666 7.946c6.381-10.492 11.342-24.662 14.345-41.317h32.691c-9.748 19.135-26.582 34.069-47.036 41.317zm-58.669-79.416c0-8.073.462-15.792 1.284-23.07h58.659c.822 7.277 1.284 14.997 1.284 23.07 0 8.072-.462 15.792-1.284 23.069h-58.659c-.823-7.277-1.284-14.997-1.284-23.069zm30.613-84.238c10.282 0 21.426 18.249 27.002 46.139h-54.004c5.576-27.89 16.72-46.139 27.002-46.139zm44.496 61.168h36.504c2.093 7.337 3.238 15.07 3.238 23.07s-1.145 15.732-3.238 23.069h-36.5c.746-7.36 1.143-15.073 1.143-23.069 0-7.998-.401-15.709-1.147-23.07zm30.596-15.029h-32.695c-3.004-16.655-7.964-30.827-14.345-41.318 20.456 7.247 37.291 22.182 47.04 41.318zm-103.133-41.322c-6.385 10.493-11.352 24.659-14.357 41.322h-32.694c9.75-19.139 26.59-34.076 47.051-41.322zm-52.947 102.49c-2.127-7.463-3.249-15.226-3.249-23.069 0-8 1.145-15.732 3.238-23.07h36.503c-.746 7.36-1.146 15.072-1.146 23.07 0 7.995.392 15.711 1.138 23.069zm53.986 15.03h54.004c-5.577 27.89-16.72 46.139-27.002 46.139s-21.426-18.249-27.002-46.139z" fill="#ffffff" data-original="#000000" style=""/><path d="m355.267 362.772c0-4.15-3.364-7.515-7.515-7.515h-183.504c-4.151 0-7.515 3.365-7.515 7.515s3.364 7.515 7.515 7.515h183.505c4.15-.001 7.514-3.365 7.514-7.515z" fill="#ffffff" data-original="#000000" style=""/><path d="m191.3 402.683c-4.151 0-7.515 3.365-7.515 7.515s3.364 7.515 7.515 7.515h129.4c4.151 0 7.515-3.365 7.515-7.515s-3.364-7.515-7.515-7.515z" fill="#ffffff" data-original="#000000" style=""/></g></g></svg>
