<?xml version="1.0"?>
<svg xmlns="http://www.w3.org/2000/svg" xmlns:xlink="http://www.w3.org/1999/xlink" xmlns:svgjs="http://svgjs.com/svgjs" version="1.1" width="512" height="512" x="0" y="0" viewBox="0 0 512.044 512.044" style="enable-background:new 0 0 512 512" xml:space="preserve"><g><g xmlns="http://www.w3.org/2000/svg"><path d="m500.05 289.768c-.687-.195-1.368-.392-2.054-.588 5.353-91.888-43.328-177.044-123.58-219.65-3.659-1.942-8.199-.551-10.141 3.107-1.942 3.659-.552 8.199 3.107 10.142 6.868 3.646 13.484 7.626 19.838 11.909-12.778 17.177-26.307 33.965-47.484 30.815-51.728-7.67-65.202 21.164-74.572 51.357-1.16 3.737-2.048 7.534-2.68 11.364-12.024-8.275-22.734-16.67-32.039-25.139l5.294-3.707c8.575-6.005 9.635-18.29 2.246-25.68-11.929-11.931-29.993-14.697-44.947-6.884l-3.709 1.938c-5.415-11.587-13.037-24.296-22.749-37.96l33.478-23.441c43.089-13.469 90.795-13.495 135.278 1.591 3.922 1.331 8.181-.771 9.512-4.694 1.33-3.923-.772-8.181-4.693-9.511-36.675-12.437-75.454-15.265-112.337-9.305 4.026-7.44 2.749-16.686-3.311-22.747l-4.128-4.127c-16.194-16.195-40.713-19.95-61.014-9.345l-43.063 22.498c-25.429-24.284-67.271-25.591-90.346-2.516-23.075 23.076-21.768 64.917 2.517 90.345l-22.498 43.064c-10.605 20.299-6.85 44.819 9.345 61.015l4.128 4.127c4.231 4.232 10.267 6.347 16.474 5.411-17.966 97.473 27.227 193.932 110.801 243.336 3.579 2.116 8.174.912 10.273-2.64 2.108-3.565.926-8.165-2.64-10.272-86.583-51.186-125.836-153.433-98.999-247.779l32.197-45.982c13.664 9.712 26.373 17.333 37.96 22.749-.603 1.775-9.397 13.63-5.239 30.613-16.506 6.4-35.145 13.688-35.27 34.498-.181 29.948 38.21 59.952 58.208 37.651 12.502-13.94 40.149-13.31 43.369-1.855 4.027 14.327-7.978 32.294-14.969 44.156-21.464 36.414 42.023 57.792 48.316 74.43 11.198 29.609-2.869 51.572-17.415 72.59-5.852-1.755-11.642-3.746-17.356-6.002-3.851-1.52-8.209.37-9.729 4.223-1.521 3.853.37 8.209 4.223 9.73 27.242 10.752 56.032 16.204 85.572 16.204 111.883 0 206.459-79.19 228.417-186.094 1.577-.246 3.152-.501 4.719-.78 17.296-3.088 18.568-27.375 1.69-32.165zm-220.559-108.461c8.611-27.752 17.815-46.936 58.045-40.966 29.852 4.427 47.649-17.782 61.83-36.848 55.871 43.5 86.907 111.182 83.825 181.374-12.369-3.679-24.439-7.46-36.191-11.335 1.274-15.126-6.633-33.66-15.67-51.716-11.217-22.413-27.75-21.354-43.733-20.326-4.939.317-10.043.645-15.537.448-25.634-.909-31.364 18.23-34.44 28.516-.008.027-.016.053-.024.08-22.654-10.691-43.099-21.759-61.092-33.088.355-5.45 1.349-10.863 2.987-16.139zm152.619 87.209c-29.101-10.021-56.115-20.619-80.758-31.658 3.899-12.607 6.083-20.417 20.173-19.929 26.012.932 37.029-7.106 46.392 11.601 6.543 13.075 13.549 28.604 14.193 39.986zm-265.799-246.008c14.461-7.555 31.925-4.879 43.462 6.657l4.127 4.127c1.859 1.859 1.591 4.941-.564 6.451l-55.678 38.986c-9.186-11.953-19.882-24.513-30.435-35.8zm-129.807 194.067c-1.508 2.154-4.591 2.425-6.451.564l-4.128-4.127c-11.536-11.536-14.21-29.002-6.656-43.462l20.421-39.088c11.287 10.554 23.847 21.249 35.8 30.435zm3.623-106.539c-19.312-19.312-21.011-52.788-3.564-70.234 17.68-17.679 51.182-15.489 70.234 3.564 24.981 24.981 58.802 65.781 71.903 98.548 1.645 4.116 6.496 5.922 10.437 3.863l10.848-5.667c9.115-4.763 20.123-3.075 27.395 4.196.802.802.692 2.13-.244 2.786l-43.128 30.198c-3.885 2.72-7.235 6.07-9.957 9.957l-30.198 43.127c-.651.929-1.976 1.054-2.787.244-7.271-7.271-8.957-18.28-4.196-27.395l5.668-10.848c2.057-3.938.256-8.791-3.863-10.437-32.767-13.1-73.567-46.921-98.548-71.902zm225.094 383.769c-16.048 0-31.854-1.73-47.277-5.139 14.474-21.382 28.991-47.6 16.014-81.912-3.609-9.541-14.268-17.351-25.552-25.62-22.175-16.248-30.393-24.825-23.872-35.887 8.042-13.643 22.384-34.856 16.488-55.832-6.966-24.788-49.419-25.909-68.976-4.101-8.872 9.88-32.149-9.618-32.041-27.546.061-10.15 9.859-14.463 25.84-20.659.27-.104.538-.214.807-.319 1.144 1.551 2.41 3.035 3.808 4.433 7.404 7.404 19.686 6.314 25.68-2.247l6.571-9.385c35.606 23.921 100.445 55.444 163.79 74.679-10.941 15.166-20.14 40.428-10.469 62.482 10.505 23.96-2.948 70.419 32.699 110.429-26.284 10.884-54.661 16.624-83.51 16.624zm97.907-23.211c-36.065-36.676-20.653-80.892-33.358-109.864-6.741-15.373-.262-35.205 9.15-48.04 1.077-1.469 2.36-2.675 3.93-3.705 43.215 11.806 90.749 19.488 135.014 15.626-14.313 62.245-55.89 116.457-114.736 145.983zm132.594-163.43c-63.903 11.398-138.128-7.393-189.143-25.163-56.089-19.539-106.793-45.726-135.261-64.701l15.019-21.449c1.715-2.449 3.826-4.56 6.274-6.274l25.261-17.688c71.071 66.521 204.1 111.311 278.082 132.309.373.105 1.147.325 1.089 1.491-.062 1.25-.976 1.413-1.321 1.475zm-421.419-251.722c-4.81 3.099-8.961 6.383-12.339 9.761-3.377 3.376-6.66 7.527-9.761 12.338-2.244 3.481-1.24 8.123 2.241 10.367 3.504 2.259 8.138 1.218 10.367-2.241 2.524-3.917 5.135-7.233 7.759-9.857 2.626-2.625 5.942-5.236 9.857-7.759 3.482-2.244 4.486-6.885 2.242-10.367-2.243-3.483-6.886-4.485-10.366-2.242z" fill="#ffffff" data-original="#000000" style=""/></g></g></svg>
